PathFileType	4	(X/Y/Z)	/Users/itak/Documents/Research/Walk-IL/dataset/trc/00182_00008.trc
DataRate	CameraRate	NumFrames	NumMarkers	Units	OrigDataRate	OrigDataStartFrame	OrigNumFrames
100.000000	100.000000	4	53	mm	100.000000	696	796
Frame#	Time	RPSI			LPSI			L3			STRN			T10			C7			CLAV			RBAK			LBAK			LSHO			LUPA			LAEL			LAOL			LWTS			LWPS			LFRA			LIFD			LHPS			LHTS			RSHO			RUPA			RAEL			RAOL			RWTS			RWPS			RFRA			RIFD			RHTS			RHPS			RBHD			LFHD			RFHD			LBHD			LHIP			RHIP			RASI			LASI			LKNE			LTHI			LANK			LTIP			LTOE			LMT1			LMT5			LHEE			RKNE			RTHI			RANK			RTIP			RTOE			RMT1			RMT5			RHEE			
		X1	Y1	Z1	X2	Y2	Z2	X3	Y3	Z3	X4	Y4	Z4	X5	Y5	Z5	X6	Y6	Z6	X7	Y7	Z7	X8	Y8	Z8	X9	Y9	Z9	X10	Y10	Z10	X11	Y11	Z11	X12	Y12	Z12	X13	Y13	Z13	X14	Y14	Z14	X15	Y15	Z15	X16	Y16	Z16	X17	Y17	Z17	X18	Y18	Z18	X19	Y19	Z19	X20	Y20	Z20	X21	Y21	Z21	X22	Y22	Z22	X23	Y23	Z23	X24	Y24	Z24	X25	Y25	Z25	X26	Y26	Z26	X27	Y27	Z27	X28	Y28	Z28	X29	Y29	Z29	X30	Y30	Z30	X31	Y31	Z31	X32	Y32	Z32	X33	Y33	Z33	X34	Y34	Z34	X35	Y35	Z35	X36	Y36	Z36	X37	Y37	Z37	X38	Y38	Z38	X39	Y39	Z39	X40	Y40	Z40	X41	Y41	Z41	X42	Y42	Z42	X43	Y43	Z43	X44	Y44	Z44	X45	Y45	Z45	X46	Y46	Z46	X47	Y47	Z47	X48	Y48	Z48	X49	Y49	Z49	X50	Y50	Z50	X51	Y51	Z51	X52	Y52	Z52	X53	Y53	Z53	

697	6.96	-837.680908203125	1055.1650390625	661.8197021484375	-761.8536987304688	1055.7890625	563.070556640625	-806.775146484375	1092.853393554688	609.5795288085938	-606.6134643554688	1310.933715820312	769.1199951171875	-829.7235107421875	1245.573364257812	578.4252319335938	-783.1377563476562	1518.095581054688	603.5999755859375	-627.9237670898438	1423.104858398438	740.9465942382812	-896.3651733398438	1338.892456054688	646.6215209960938	-722.8601684570312	1493.896240234375	522.4357299804688	-612.9131469726562	1485.689208984375	513.7758178710938	-588.7213134765625	1353.6201171875	435.99658203125	-565.7506103515625	1136.61865234375	431.5667724609375	-649.5889892578125	1120.825927734375	455.691650390625	-505.6478881835938	899.8101806640625	517.3172607421875	-540.1134033203125	884.5245361328125	431.9232788085938	-547.0018920898438	1027.121459960938	426.0029296875	-518.3853759765625	712.4341430664062	532.1287841796875	-529.1082153320312	813.8463745117188	444.9614868164062	-487.4309692382812	819.5967407226562	504.4141540527344	-852.1725463867188	1499.204956054688	781.0140380859375	-913.4010009765625	1434.99658203125	816.6622314453125	-975.92578125	1151.735717773438	837.9613647460938	-910.4990844726562	1142.742065429688	763.4066162109375	-870.4746704101562	914.98388671875	911.93212890625	-958.0809326171875	903.3411254882812	894.293212890625	-973.2540283203125	1077.4970703125	866.5960693359375	-847.8299560546875	727.649658203125	888.7861938476562	-860.1216430664062	818.5958862304688	929.5480346679688	-938.427490234375	819.4863891601562	906.2811279296875	-791.2627563476562	1683.646240234375	711.685546875	-587.3348999023438	1739.66259765625	669.2996826171875	-643.438720703125	1740.04052734375	784.7960205078125	-737.6297607421875	1689.383056640625	584.93701171875	-609.7108764648438	998.6879272460938	530.0684814453125	-789.3156127929688	1015.321166992188	859.2824096679688	-692.1113891601562	1045.017578125	860.9649658203125	-545.6461791992188	1038.719482421875	650.278564453125	-618.290771484375	500.2346801757812	579.6333618164062	-599.6381225585938	642.6575317382812	556.2200927734375	-720.4182739257812	42.08855438232422	530.7633056640625	-660.5809936523438	274.8257141113281	545.3148193359375	-536.5997314453125	42.23707962036133	650.4119873046875	-603.5303955078125	38.60823822021484	672.8546142578125	-606.2832641601562	38.43995666503906	545.1008911132812	-797.9697265625	40.3703498840332	567.5496826171875	-783.3796997070312	515.743408203125	803.0502319335938	-753.2686767578125	779.8964233398438	879.3446655273438	-851.396484375	34.26709365844727	708.601806640625	-766.6741333007812	397.5444641113281	785.4036254882812	-659.8521728515625	44.95055389404297	830.7647705078125	-669.489013671875	47.96423721313477	763.0030517578125	-793.4519653320312	30.04592323303223	810.4536743164062	-842.0820922851562	38.90092468261719	625.70703125	
698	6.97	-836.9241943359375	1055.248413085938	661.3639526367188	-761.1455688476562	1055.794311523438	562.5579223632812	-806.115234375	1092.864013671875	609.1143188476562	-605.6187744140625	1310.905151367188	768.620361328125	-829.1642456054688	1245.616088867188	578.0374145507812	-782.4054565429688	1518.06787109375	603.3770751953125	-626.9330444335938	1423.044677734375	740.4797973632812	-895.5574951171875	1338.931640625	646.5313110351562	-722.2140502929688	1493.945678710938	522.153076171875	-612.3646850585938	1485.782592773438	513.2584228515625	-588.237060546875	1353.84130859375	435.2869262695312	-564.9609375	1136.88525390625	430.4508972167969	-648.8487548828125	1120.971557617188	454.6181030273438	-504.3158569335938	900.1778564453125	516.0242309570312	-538.90185546875	884.8010864257812	430.7363891601562	-546.0449829101562	1027.39697265625	424.8042297363281	-516.5391845703125	712.8108520507812	530.93115234375	-527.7470703125	814.1587524414062	443.7578735351562	-485.9008178710938	820.02197265625	503.0970764160156	-851.1199951171875	1499.15673828125	780.9266357421875	-912.2911987304688	1434.958374023438	816.6614990234375	-974.92138671875	1151.874755859375	837.6488647460938	-909.4815673828125	1142.790283203125	763.1146240234375	-871.4295654296875	914.1657104492188	911.0798950195312	-959.106689453125	903.404541015625	893.3363037109375	-972.66943359375	1077.706420898438	866.1351928710938	-850.6903076171875	726.6102294921875	887.22607421875	-861.9866943359375	817.5341186523438	928.299560546875	-940.2537231445312	819.2299194335938	904.9747314453125	-790.5132446289062	1683.499633789062	711.3560791015625	-586.7002563476562	1739.749145507812	668.697021484375	-642.6747436523438	1740.083618164062	784.2689819335938	-737.0301513671875	1689.26318359375	584.5723266601562	-608.8839111328125	998.6771240234375	529.6265869140625	-788.7069091796875	1015.296997070312	858.8467407226562	-691.43408203125	1044.8916015625	860.6278686523438	-544.992919921875	1038.612548828125	649.9562377929688	-618.105712890625	500.1229858398438	579.244873046875	-599.1458740234375	642.5472412109375	555.9321899414062	-720.35693359375	41.9990348815918	530.6605224609375	-660.4974975585938	274.7351684570312	545.0271606445312	-536.6472778320312	42.18397521972656	650.4104614257812	-603.5548706054688	38.61820983886719	672.8463745117188	-606.2902221679688	38.37149810791016	545.0272216796875	-797.9767456054688	40.35650634765625	567.394775390625	-783.4674072265625	515.6985473632812	802.5946655273438	-752.9432983398438	779.7944946289062	878.9029541015625	-851.4019775390625	34.29515838623047	708.5856323242188	-766.8425903320312	397.6298828125	784.9724731445312	-659.8170776367188	44.95600509643555	830.7507934570312	-669.4575805664062	47.92158126831055	762.9498901367188	-793.3829345703125	30.13452529907227	810.43896484375	-842.0942993164062	38.79402923583984	625.7302856445312	
699	6.98	-836.2447509765625	1055.357299804688	660.8339233398438	-760.438232421875	1055.838256835938	562.0255126953125	-805.503173828125	1092.90625	608.5923461914062	-604.6339721679688	1310.882934570312	768.1123046875	-828.619873046875	1245.70654296875	577.6356201171875	-781.6397094726562	1518.081665039062	603.1534423828125	-625.9320068359375	1422.997802734375	740.0109252929688	-894.7557373046875	1339.031372070312	646.4378051757812	-721.5553588867188	1494.026977539062	521.8550415039062	-611.7868041992188	1485.88916015625	512.745849609375	-587.7520141601562	1354.063598632812	434.5820007324219	-564.1870727539062	1137.153686523438	429.3446044921875	-648.097412109375	1121.12255859375	453.5751342773438	-502.9319763183594	900.609130859375	514.870361328125	-537.6622924804688	885.0685424804688	429.7092590332031	-545.0726318359375	1027.66015625	423.6742553710938	-514.5736694335938	713.2634887695312	530.00390625	-526.32568359375	814.4662475585938	442.7670288085938	-484.3134155273438	820.506103515625	501.9613952636719	-850.0491333007812	1499.161254882812	780.8357543945312	-911.1622314453125	1434.967651367188	816.6591186523438	-973.85693359375	1152.06005859375	837.407470703125	-908.40283203125	1142.872314453125	762.9107666015625	-872.2760620117188	913.46826171875	910.4130249023438	-960.0086059570312	903.5567626953125	892.5554809570312	-972.013427734375	1077.980590820312	865.78125	-853.4235229492188	725.7023315429688	885.91259765625	-863.7450561523438	816.5892333984375	927.2741088867188	-941.984375	819.0975952148438	903.8510131835938	-789.751953125	1683.358032226562	711.0358276367188	-586.0506591796875	1739.873901367188	668.0714111328125	-641.9124755859375	1740.163208007812	783.7291870117188	-736.4437255859375	1689.1650390625	584.2116088867188	-608.1024169921875	998.7036743164062	529.13671875	-788.1602172851562	1015.28955078125	858.3536376953125	-690.7984619140625	1044.787841796875	860.2401123046875	-544.3798217773438	1038.509033203125	649.601806640625	-617.9507446289062	500.0103759765625	578.8175048828125	-598.7088012695312	642.45361328125	555.5713500976562	-720.29638671875	41.89846420288086	530.5493774414062	-660.4232788085938	274.6616821289062	544.712890625	-536.7034912109375	42.14953994750977	650.3886108398438	-603.580322265625	38.65021133422852	672.8203735351562	-606.2941284179688	38.28837203979492	544.93701171875	-797.9822387695312	40.34099578857422	567.23388671875	-783.4415283203125	515.6668090820312	802.2166137695312	-752.6249389648438	779.7214965820312	878.4730224609375	-851.4033203125	34.32370758056641	708.5740356445312	-766.89306640625	397.6988525390625	784.6039428710938	-659.7778930664062	44.95979309082031	830.7361450195312	-669.423583984375	47.87407302856445	762.896484375	-793.3070678710938	30.23091316223145	810.4232177734375	-842.1067504882812	38.69598388671875	625.7543334960938	
700	6.99	-835.647705078125	1055.491333007812	660.23583984375	-759.736328125	1055.918212890625	561.4839477539062	-804.95458984375	1092.980834960938	608.0092163085938	-603.6640014648438	1310.860473632812	767.6006469726562	-828.0809326171875	1245.843627929688	577.2246704101562	-780.8343505859375	1518.139526367188	602.9325561523438	-624.9312133789062	1422.9619140625	739.544189453125	-893.958740234375	1339.18798828125	646.3394775390625	-720.8782958984375	1494.140991210938	521.543701171875	-611.1669921875	1486.005493164062	512.2518920898438	-587.25439453125	1354.282836914062	433.8939514160156	-563.4240112304688	1137.419189453125	428.2556457519531	-647.320556640625	1121.273803710938	452.5709533691406	-501.5003051757812	901.0925903320312	513.8568725585938	-536.4069213867188	885.32177734375	428.8367309570312	-544.0867919921875	1027.905395507812	422.6150817871094	-512.5111694335938	713.7769165039062	529.3380737304688	-524.8551635742188	814.761962890625	441.9817810058594	-482.671875	821.036376953125	501.0044860839844	-848.96044921875	1499.22119140625	780.7400512695312	-910.0243530273438	1435.028442382812	816.6539306640625	-972.7562255859375	1152.288818359375	837.2440795898438	-907.292724609375	1142.984130859375	762.7869262695312	-872.9921264648438	912.9019165039062	909.9234619140625	-960.7722778320312	903.792236328125	891.9559936523438	-971.3021240234375	1078.316772460938	865.537109375	-855.9801025390625	724.9400634765625	884.8492431640625	-865.3627319335938	815.7799072265625	926.4692993164062	-943.5828857421875	819.099365234375	902.9395751953125	-788.97021484375	1683.222290039062	710.7247314453125	-585.3811645507812	1740.032470703125	667.4236450195312	-641.1455078125	1740.280151367188	783.1768798828125	-735.86474609375	1689.081665039062	583.8506469726562	-607.3804321289062	998.7554931640625	528.6021118164062	-787.6577758789062	1015.300964355469	857.8055419921875	-690.2023315429688	1044.70947265625	859.7969360351562	-543.80029296875	1038.40625	649.2030029296875	-617.8186645507812	499.8931274414062	578.3598022460938	-598.3250122070312	642.3717651367188	555.1427612304688	-720.2401733398438	41.78779220581055	530.4318237304688	-660.3549194335938	274.6028747558594	544.3790893554688	-536.7670288085938	42.1310920715332	650.3504028320312	-603.6077270507812	38.70021820068359	672.780517578125	-606.29296875	38.19136428833008	544.8341064453125	-797.9864501953125	40.32550048828125	567.0713500976562	-783.3220825195312	515.6546020507812	801.912841796875	-752.3057861328125	779.6810302734375	878.0573120117188	-851.4024658203125	34.35177612304688	708.5659790039062	-766.841064453125	397.7501220703125	784.2990112304688	-659.737060546875	44.96176528930664	830.72119140625	-669.3890991210938	47.82221221923828	762.8436889648438	-793.2279663085938	30.33322334289551	810.4046020507812	-842.1201171875	38.60967636108398	625.7778930664062	
